<svg width="47" height="47" viewBox="0 0 47 47" fill="none" xmlns="http://www.w3.org/2000/svg">
<rect width="47" height="47" rx="23.5" fill="#383838"/>
<path d="M22.8124 24.1151C22.8955 23.5831 22.8841 23.0295 22.7665 22.4765C22.6321 21.8508 22.3846 21.1997 21.8422 20.7996C21.4403 20.5049 20.9727 20.5152 20.5319 20.6383C20.4707 20.6555 20.2545 20.7226 20.1594 20.7697C20.0075 20.8437 20.0991 20.8918 20.1699 20.8746C20.1699 20.8746 20.2042 20.8727 20.2779 20.8604C20.9009 20.7555 21.4921 20.9845 21.6828 21.7376C21.896 22.5755 21.4234 23.4772 20.7276 23.9302C19.6982 24.6039 18.0608 24.2661 17.2774 23.3404C16.861 22.853 16.6016 22.1632 17.0802 21.641C17.2042 21.5076 17.3869 21.414 17.5732 21.4037C17.7814 21.3885 17.5483 21.7552 17.507 21.8229C17.3824 22.0352 17.7181 22.2754 17.8745 22.0764C18.2236 21.6371 18.3621 20.93 17.619 20.8031C16.8914 20.68 16.2011 21.2894 15.9994 21.9273C15.6488 23.0217 16.2744 23.9743 17.1887 24.5632C18.0488 25.1207 19.121 25.2403 20.1001 25.0349C21.4617 24.7564 22.406 23.4659 22.1993 22.1122C22.3552 22.9065 22.2605 23.8547 22.0559 24.4798C21.3447 26.6426 18.2784 27.4874 16.3506 26.443C14.9691 25.6909 14.5004 24.0145 14.1583 22.6191C13.736 20.9124 13.467 19.2468 12.6119 17.6764C12.0332 16.6173 11.1413 15.8711 9.96545 15.5357C8.74232 15.1886 6.75871 15.3568 6.67056 16.9257C6.66508 17.0307 6.80902 17.0964 6.8882 17.0356C7.2921 16.7443 7.77318 16.4938 8.28564 16.4933C8.71195 16.4923 9.19552 16.7169 9.55808 16.9223C10.1139 17.2366 10.472 17.7367 10.8345 18.3608C11.0223 18.6795 11.08 18.8281 11.2344 19.2473C11.3828 19.6489 11.5048 20.0642 11.6199 20.4809C11.8425 21.3095 12.1298 22.1362 12.4038 22.9535C12.9401 24.5441 13.6563 26.2018 15.105 27.1927C16.9805 28.4846 19.6031 28.163 21.2924 26.775C22.031 26.1689 22.5195 25.3737 22.7381 24.499L22.7426 24.5073C22.8278 25.2972 22.5584 25.9929 22.0534 26.6136C21.5593 27.2211 20.9328 27.7193 20.4154 28.3106C19.3267 29.5555 18.999 30.6243 19.4821 31.6476C19.9114 32.5517 21.2042 32.6287 21.7267 31.8113C22.1639 31.1264 21.7257 30.4375 20.9184 30.5522C20.7789 30.5728 20.7824 30.7861 20.9318 30.7773C21.9891 30.6989 21.5857 31.9722 20.7625 31.8432C19.7421 31.6873 20.2585 30.3556 20.5444 29.8232C20.9841 29.0044 21.8058 28.1257 22.3641 27.178C22.895 26.3474 23.3542 25.4815 22.8173 24.1258C22.8148 24.1204 22.8138 24.118 22.8124 24.1151Z" fill="white"/>
<path d="M36.7044 15.5328C35.5286 15.8686 34.6367 16.6144 34.058 17.6734C33.2019 19.2439 32.9334 20.9094 32.5116 22.6162C32.169 24.0116 31.7004 25.6879 30.3194 26.4401C28.3915 27.4844 25.3247 26.6396 24.6135 24.4769C24.4089 23.8518 24.3137 22.9035 24.4701 22.1092C24.2634 23.4629 25.2077 24.7534 26.5698 25.0319C27.5484 25.2374 28.6211 25.1177 29.4812 24.5602C30.3945 23.9714 31.0211 23.0187 30.6699 21.9244C30.4687 21.2865 29.778 20.677 29.0504 20.8001C28.3074 20.9271 28.4463 21.6336 28.7954 22.0734C28.9518 22.2725 29.2874 22.0322 29.1629 21.8199C29.1211 21.7518 28.8885 21.385 29.0967 21.4007C29.2825 21.411 29.4652 21.5047 29.5888 21.638C30.0683 22.1597 29.8084 22.8501 29.392 23.3374C28.6091 24.2631 26.9712 24.6009 25.9418 23.9273C25.2465 23.4742 24.7729 22.5726 24.9861 21.7346C25.1773 20.9815 25.7685 20.7525 26.391 20.8575C26.4642 20.8697 26.499 20.8717 26.499 20.8717C26.5703 20.8888 26.6614 20.8408 26.5095 20.7668C26.4134 20.7197 26.1982 20.653 26.1365 20.6354C25.6962 20.5123 25.2286 20.5025 24.8267 20.7967C24.2838 21.1968 24.0358 21.8479 23.9019 22.4735C23.7848 23.0266 23.7724 23.5801 23.856 24.1121C23.8551 24.1155 23.8536 24.118 23.8521 24.1214C23.3152 25.4771 23.7744 26.3425 24.3043 27.1736C24.8636 28.1213 25.6853 28.9999 26.125 29.8188C26.4109 30.3512 26.9268 31.6829 25.9069 31.8388C25.0842 31.9677 24.6798 30.6944 25.7376 30.7729C25.887 30.7817 25.891 30.5684 25.7505 30.5478C24.9437 30.4336 24.505 31.122 24.9427 31.8069C25.4647 32.6243 26.7575 32.5473 27.1868 31.6432C27.6704 30.6199 27.3427 29.551 26.253 28.3062C25.7361 27.7149 25.1101 27.2167 24.6155 26.6092C24.111 25.9885 23.8416 25.2928 23.9268 24.5029L23.9313 24.4945C24.1494 25.3688 24.6384 26.164 25.3765 26.7705C27.0663 28.1586 29.6884 28.4797 31.5639 27.1883C33.0131 26.1974 33.7293 24.5401 34.2651 22.9491C34.5396 22.1318 34.8264 21.3051 35.049 20.4765C35.1646 20.0597 35.2866 19.645 35.435 19.2429C35.5889 18.8242 35.6472 18.6756 35.8349 18.3564C36.198 17.7328 36.5555 17.2322 37.1113 16.9179C37.4744 16.7124 37.9575 16.4879 38.3848 16.4889C38.8962 16.4894 39.3778 16.7404 39.7817 17.0311C39.8604 17.0919 40.0043 17.0262 39.9998 16.9213C39.9117 15.3533 37.9271 15.1856 36.7044 15.5328Z" fill="white"/>
</svg>
